HIERARCHY
ROOT Pelvis
{
	OFFSET 0.000000 0.000000 0.000000
	CHANNELS 6 Xposition Yposition Zposition Xrotation Yrotation Zrotation
	JOINT LeftUpLeg_virtual
	{
		OFFSET 0.000000 0.000000 0.000000
		CHANNELS 3 Xrotation Yrotation Zrotation
		JOINT LeftUpLeg
		{
			OFFSET 18.735201 -5.666702 -4.541200
			CHANNELS 3 Xrotation Yrotation Zrotation
			JOINT LeftLeg
			{
				OFFSET -0.021200 -31.938179 0.493100
				CHANNELS 3 Xrotation Yrotation Zrotation
				JOINT LeftFoot
				{
					OFFSET 0.021200 -31.938179 -4.336299
					CHANNELS 3 Xrotation Yrotation Zrotation
					JOINT LeftToeBase
					{
						OFFSET 0.943001 -26.722000 15.023500
						CHANNELS 3 Xrotation Yrotation Zrotation
						End Site
						{
							OFFSET 0 0 0
						}
					}
				}
			}
		}
	}
	JOINT RightUpLeg_virtual
	{
		OFFSET 0.000000 0.000000 0.000000
		CHANNELS 3 Xrotation Yrotation Zrotation
		JOINT RightUpLeg
		{
			OFFSET -18.735201 -5.666702 -4.541200
			CHANNELS 3 Xrotation Yrotation Zrotation
			JOINT RightLeg
			{
				OFFSET 0.018946 -31.938133 0.493100
				CHANNELS 3 Xrotation Yrotation Zrotation
				JOINT RightFoot
				{
					OFFSET -0.018946 -31.938126 -4.336299
					CHANNELS 3 Xrotation Yrotation Zrotation
					JOINT RightToeBase
					{
						OFFSET -0.943001 -26.722004 15.023500
						CHANNELS 3 Xrotation Yrotation Zrotation
						End Site
						{
							OFFSET 0 0 0
						}
					}
				}
			}
		}
	}
	JOINT Hips_virtual
	{
		OFFSET 0.000000 0.000000 0.000000
		CHANNELS 3 Xrotation Yrotation Zrotation
		JOINT Hips
		{
			OFFSET -0.000000 -0.000000 -0.000000
			CHANNELS 3 Xrotation Yrotation Zrotation
			JOINT Spine
			{
				OFFSET 0.000000 10.199997 -0.299500
				CHANNELS 3 Xrotation Yrotation Zrotation
				JOINT Spine1
				{
					OFFSET 0.000000 11.900002 -1.516600
					CHANNELS 3 Xrotation Yrotation Zrotation
					JOINT Spine2
					{
						OFFSET 0.000000 13.600006 -2.842500
						CHANNELS 3 Xrotation Yrotation Zrotation
						JOINT Neck_virtual
						{
							OFFSET 0.000000 0.000000 0.000000
							CHANNELS 3 Xrotation Yrotation Zrotation
							JOINT Neck
							{
								OFFSET 0.000000 9.624100 -2.890100
								CHANNELS 3 Xrotation Yrotation Zrotation
								JOINT Head
								{
									OFFSET 0.000000 14.068802 -1.351900
									CHANNELS 3 Xrotation Yrotation Zrotation
									End Site
									{
										OFFSET 0 0 0
									}
								}
							}
						}
						JOINT LeftShoulder_virtual
						{
							OFFSET 0.000000 0.000000 0.000000
							CHANNELS 3 Xrotation Yrotation Zrotation
							JOINT LeftShoulder
							{
								OFFSET 15.263000 10.923401 -0.547700
								CHANNELS 3 Xrotation Yrotation Zrotation
								JOINT LeftArm
								{
									OFFSET 25.438599 -2.830597 -13.032500
									CHANNELS 3 Xrotation Yrotation Zrotation
									JOINT LeftForeArm
									{
										OFFSET 29.960503 0.000000 0.000000
										CHANNELS 3 Xrotation Yrotation Zrotation
										JOINT LeftHand
										{
											OFFSET 27.849251 0.000000 0.000000
											CHANNELS 3 Xrotation Yrotation Zrotation
											End Site
											{
												OFFSET 0 0 0
											}
										}
									}
								}
							}
						}
						JOINT RightShoulder_virtual
						{
							OFFSET 0.000000 0.000000 0.000000
							CHANNELS 3 Xrotation Yrotation Zrotation
							JOINT RightShoulder
							{
								OFFSET -15.263000 10.923401 -0.547700
								CHANNELS 3 Xrotation Yrotation Zrotation
								JOINT RightArm
								{
									OFFSET -25.438599 -2.830597 -13.032500
									CHANNELS 3 Xrotation Yrotation Zrotation
									JOINT RightForeArm
									{
										OFFSET -29.960503 0.000000 0.000000
										CHANNELS 3 Xrotation Yrotation Zrotation
										JOINT RightHand
										{
											OFFSET -27.849251 0.000000 0.000000
											CHANNELS 3 Xrotation Yrotation Zrotation
											End Site
											{
												OFFSET 0 0 0
											}
										}
									}
								}
							}
						}
					}
				}
			}
		}
	}
}
MOTION
Frames: 8
Frame Time: 0.03333333
-2.715934 83.635635 0.770080 0.000000 0.000000 0.000000 0.812458 -44.528510 5.398076 -44.385346 -3.743540 19.596532 43.357839 -5.521037 -5.946923 -7.307075 -2.564146 -18.336450 0.000000 0.000000 0.000000 3.806273 -48.480833 -3.434082 -28.765096 -16.763987 -24.726757 45.220432 7.772700 -1.793832 -11.133677 4.482048 14.354793 0.000000 0.000000 0.000000 0.813735 -25.274635 1.067499 4.277064 -34.538535 5.609962 13.269497 -1.704188 -5.178000 8.309945 0.676576 -4.326822 0.000000 0.000000 0.000000 2.941551 3.286983 -2.910266 -1.345570 3.235555 -0.002765 0.000000 0.000000 0.000000 3.292469 -0.184969 -3.999711 -1.904886 -8.813330 -7.160288 -16.102168 0.171203 -43.066341 -1.846179 -32.714625 -2.747797 0.000000 0.000000 0.000000 4.143317 1.193048 -2.967344 1.077720 1.203721 -6.219369 -41.552214 -17.007280 39.612826 -60.970435 66.377909 57.054896 0.000000 0.000000 0.000000 
-2.705023 83.631989 0.818917 0.000000 0.000000 0.000000 0.827716 -44.577506 5.450503 -44.342063 -3.787890 19.620024 43.397328 -5.492941 -5.981531 -7.234401 -2.523214 -18.398484 0.000000 0.000000 0.000000 3.976102 -48.303132 -3.346519 -28.552221 -16.762227 -24.657772 45.353368 7.820969 -1.822912 -11.075071 4.547198 14.340428 0.000000 0.000000 0.000000 0.795147 -25.224614 1.115160 4.325755 -34.286074 5.665420 13.164111 -1.702720 -5.216115 8.338039 0.673382 -4.369334 0.000000 0.000000 0.000000 2.950732 3.232787 -2.965819 -1.379960 3.236472 0.020949 0.000000 0.000000 0.000000 3.308931 -0.186649 -4.095965 -2.001884 -8.760810 -7.038440 -16.238078 0.391529 -43.091127 -1.888008 -32.585132 -2.821078 0.000000 0.000000 0.000000 4.134966 1.228670 -2.951795 1.008137 1.089373 -6.099834 -41.993874 -17.760129 39.832775 -62.482366 65.893068 58.733712 0.000000 0.000000 0.000000 
-2.680667 83.614143 0.899970 0.000000 0.000000 0.000000 0.848524 -44.673194 5.544883 -44.276278 -3.871538 19.665125 43.476292 -5.443276 -6.040245 -7.101143 -2.451386 -18.506312 0.000000 0.000000 0.000000 4.276972 -47.961240 -3.193310 -28.168911 -16.751601 -24.530846 45.598080 7.900236 -1.867247 -10.973459 4.650992 14.320679 0.000000 0.000000 0.000000 0.758483 -25.173202 1.206815 4.402540 -33.786207 5.750555 12.958456 -1.692980 -5.276866 8.387247 0.664774 -4.443975 0.000000 0.000000 0.000000 2.954483 3.128247 -3.065303 -1.445202 3.229686 0.067537 0.000000 0.000000 0.000000 3.342620 -0.190891 -4.276134 -2.174256 -8.667017 -6.809130 -16.492685 0.785295 -43.126600 -1.972771 -32.402615 -2.959560 0.000000 0.000000 0.000000 4.116013 1.292400 -2.917598 0.868204 0.879883 -5.864611 -42.885115 -19.192963 40.234746 -65.000820 64.876101 61.568500 0.000000 0.000000 0.000000 
-2.637633 83.564857 0.986277 0.000000 0.000000 0.000000 0.856647 -44.810399 5.660864 -44.223245 -3.985113 19.726336 43.599228 -5.383576 -6.106044 -6.923579 -2.366203 -18.634177 0.000000 0.000000 0.000000 4.644776 -47.477574 -3.010519 -27.686891 -16.720196 -24.365380 45.921042 7.982093 -1.905826 -10.853615 4.750953 14.307702 0.000000 0.000000 0.000000 0.710377 -25.191486 1.338148 4.482245 -33.054420 5.834021 12.666240 -1.667485 -5.334988 8.445837 0.646664 -4.532986 0.000000 0.000000 0.000000 2.930473 2.978675 -3.190410 -1.535362 3.201033 0.134341 0.000000 0.000000 0.000000 3.394816 -0.199808 -4.518399 -2.386199 -8.550725 -6.501084 -16.829038 1.275205 -43.153330 -2.098670 -32.283828 -3.148334 0.000000 0.000000 0.000000 4.084074 1.370557 -2.860061 0.659541 0.603282 -5.520491 -44.217866 -21.177512 40.750442 -67.755074 63.295950 64.755944 0.000000 0.000000 0.000000 
-2.568656 83.465950 1.050213 0.000000 0.000000 0.000000 0.828363 -44.981215 5.770519 -44.222312 -4.116465 19.792961 43.780307 -5.327601 -6.160945 -6.711323 -2.288598 -18.756005 0.000000 0.000000 0.000000 5.010783 -46.876367 -2.837067 -27.185830 -16.654853 -24.184882 46.289469 8.035696 -1.919867 -10.739425 4.803850 14.308776 0.000000 0.000000 0.000000 0.669627 -25.334227 1.507424 4.555204 -32.123510 5.902351 12.313553 -1.625757 -5.364482 8.501215 0.613976 -4.616150 0.000000 0.000000 0.000000 2.858964 2.787859 -3.323034 -1.643559 3.135650 0.215831 0.000000 0.000000 0.000000 3.466886 -0.216885 -4.796058 -2.599086 -8.432497 -6.155647 -17.189144 1.775950 -43.157674 -2.255662 -32.334276 -3.367646 0.000000 0.000000 0.000000 4.040071 1.446008 -2.775070 0.390994 0.284304 -5.076701 -45.937059 -23.553535 41.295744 -70.054252 61.196794 67.562298 0.000000 0.000000 0.000000 
-2.466742 83.303185 1.073199 0.000000 0.000000 0.000000 0.739807 -45.177412 5.843314 -44.305890 -4.253172 19.849686 44.043891 -5.287980 -6.190384 -6.460504 -2.238431 -18.852099 0.000000 0.000000 0.000000 5.320471 -46.176853 -2.705229 -26.732059 -16.544485 -24.012551 46.682495 8.034892 -1.899962 -10.644968 4.778048 14.320833 0.000000 0.000000 0.000000 0.666765 -25.608396 1.715685 4.637475 -31.047472 5.968825 11.938559 -1.577636 -5.347493 8.543947 0.562220 -4.675934 0.000000 0.000000 0.000000 2.731346 2.556821 -3.450468 -1.762767 3.022650 0.303599 0.000000 0.000000 0.000000 3.559695 -0.246272 -5.082273 -2.781781 -8.329509 -5.821558 -17.499585 2.210389 -43.138368 -2.422357 -32.609434 -3.594973 0.000000 0.000000 0.000000 3.991142 1.502021 -2.660954 0.082587 -0.059754 -4.545866 -47.925723 -26.146734 41.789440 -71.510291 58.701562 69.552977 0.000000 0.000000 0.000000 
-2.328480 83.068184 1.052295 0.000000 0.000000 0.000000 0.573994 -45.395319 5.853712 -44.491029 -4.385746 19.880299 44.418489 -5.273360 -6.185007 -6.155037 -2.230962 -18.911004 0.000000 0.000000 0.000000 5.543956 -45.389438 -2.635477 -26.365099 -16.382053 -23.867457 47.095759 7.961379 -1.847795 -10.570338 4.658345 14.330367 0.000000 0.000000 0.000000 0.734372 -25.966463 1.963136 4.765245 -29.897517 6.063668 11.584645 -1.539413 -5.279360 8.569974 0.489389 -4.701070 0.000000 0.000000 0.000000 2.552980 2.285343 -3.567040 -1.885897 2.857986 0.387689 0.000000 0.000000 0.000000 3.672747 -0.290945 -5.353699 -2.916272 -8.252486 -5.546128 -17.684733 2.515276 -43.105730 -2.567470 -33.105018 -3.806976 0.000000 0.000000 0.000000 3.951045 1.526550 -2.519363 -0.234482 -0.412517 -3.945890 -50.019541 -28.781376 42.171050 -72.034392 55.975767 70.596234 0.000000 0.000000 0.000000 
-2.156591 82.757195 1.002097 0.000000 0.000000 0.000000 0.326912 -45.640588 5.788854 -44.775821 -4.510517 19.873019 44.925535 -5.286985 -6.140300 -5.775476 -2.274884 -18.927603 0.000000 0.000000 0.000000 5.676379 -44.515164 -2.634973 -26.095689 -16.164976 -23.761178 47.538718 7.804477 -1.772788 -10.503572 4.443586 14.318272 0.000000 0.000000 0.000000 0.892547 -26.326862 2.243900 4.978458 -28.750343 6.216507 11.288836 -1.525060 -5.168075 8.579784 0.397461 -4.687590 0.000000 0.000000 0.000000 2.339650 1.975230 -3.672819 -2.005770 2.644845 0.458649 0.000000 0.000000 0.000000 3.803074 -0.350377 -5.592598 -2.998036 -8.205056 -5.365360 -17.684767 2.640603 -43.076371 -2.656071 -33.774227 -3.982022 0.000000 0.000000 0.000000 3.936926 1.515542 -2.355023 -0.523239 -0.747745 -3.300327 -52.044887 -31.293523 42.411534 -71.705716 53.185788 70.737407 0.000000 0.000000 0.000000 
